<?xml version="1.0" encoding="utf-8"?>
<!-- Generator: Adobe Illustrator 16.0.0, SVG Export Plug-In . SVG Version: 6.00 Build 0)  -->
<!DOCTYPE svg PUBLIC "-//W3C//DTD SVG 1.1 Tiny//EN" "http://www.w3.org/Graphics/SVG/1.1/DTD/svg11-tiny.dtd">
<svg version="1.1" baseProfile="tiny" id="Layer_1" xmlns="http://www.w3.org/2000/svg" xmlns:xlink="http://www.w3.org/1999/xlink"
	 x="0px" y="0px" width="147.214px" height="51.5px" viewBox="0 0 147.214 51.5" xml:space="preserve">
<polygon fill="#E6E9ED" points="141.26,22.992 130.753,22.992 134.222,27.617 144.729,27.617 "/>
<g>
	<path fill="none" d="M31.02,2.062c-3.376,3.673-8.146,10.071-7.157,12.346c0.259,0.596,1.042,0.898,2.329,0.898c0,0,0,0,0,0l0,0
		h17.753V1.603C39.305,1.705,34.891,1.875,31.02,2.062z"/>
	<path fill="none" d="M117.553,30.684c-5.325,0-9.658,4.333-9.658,9.658S112.228,50,117.553,50s9.658-4.333,9.658-9.658
		S122.878,30.684,117.553,30.684z M119.476,37.358l1.635-1.635c0.293-0.293,0.768-0.293,1.061,0s0.293,0.768,0,1.061l-1.635,1.635
		c-0.146,0.146-0.338,0.22-0.53,0.22s-0.384-0.073-0.53-0.22C119.183,38.126,119.183,37.651,119.476,37.358z M111.021,40.342
		c0-0.414,0.336-0.75,0.75-0.75h2.313c0.414,0,0.75,0.336,0.75,0.75s-0.336,0.75-0.75,0.75h-2.313
		C111.356,41.092,111.021,40.756,111.021,40.342z M115.63,43.325l-1.636,1.636c-0.146,0.146-0.338,0.22-0.53,0.22
		s-0.384-0.073-0.53-0.22c-0.293-0.293-0.293-0.768,0-1.061l1.636-1.636c0.293-0.293,0.768-0.293,1.061,0
		S115.923,43.032,115.63,43.325z M115.63,38.419c-0.146,0.146-0.338,0.22-0.53,0.22c-0.191,0-0.384-0.073-0.53-0.22l-1.636-1.635
		c-0.293-0.293-0.293-0.768,0-1.061c0.292-0.292,0.767-0.294,1.061,0l1.636,1.635C115.923,37.651,115.923,38.126,115.63,38.419z
		 M118.303,46.124c0,0.414-0.336,0.75-0.75,0.75s-0.75-0.336-0.75-0.75v-2.313c0-0.414,0.336-0.75,0.75-0.75s0.75,0.336,0.75,0.75
		V46.124z M118.303,36.873c0,0.414-0.336,0.75-0.75,0.75s-0.75-0.336-0.75-0.75V34.56c0-0.414,0.336-0.75,0.75-0.75
		s0.75,0.336,0.75,0.75V36.873z M122.171,44.96c-0.146,0.146-0.338,0.22-0.53,0.22s-0.384-0.073-0.53-0.22l-1.635-1.635
		c-0.293-0.293-0.293-0.768,0-1.061s0.768-0.293,1.061,0l1.635,1.635C122.464,44.192,122.464,44.667,122.171,44.96z M123.335,41.092
		h-2.313c-0.414,0-0.75-0.336-0.75-0.75s0.336-0.75,0.75-0.75h2.313c0.414,0,0.75,0.336,0.75,0.75S123.749,41.092,123.335,41.092z"
		/>
	<polygon fill="none" points="135.21,26.871 143.229,26.871 140.885,23.745 132.084,23.745 	"/>
	<path fill="none" d="M45.445,1.574v13.732h27.169L68.829,2.031C61.554,1.498,53.25,1.431,45.445,1.574z"/>
	<path fill="none" d="M31.975,30.684c-5.326,0-9.658,4.333-9.658,9.658S26.649,50,31.975,50s9.658-4.333,9.658-9.658
		S37.3,30.684,31.975,30.684z M33.897,37.358l1.635-1.635c0.293-0.293,0.768-0.293,1.061,0s0.293,0.768,0,1.061l-1.635,1.635
		c-0.146,0.146-0.338,0.22-0.53,0.22s-0.384-0.073-0.53-0.22C33.604,38.126,33.604,37.651,33.897,37.358z M25.442,40.342
		c0-0.414,0.336-0.75,0.75-0.75h2.313c0.414,0,0.75,0.336,0.75,0.75s-0.336,0.75-0.75,0.75h-2.313
		C25.778,41.092,25.442,40.756,25.442,40.342z M30.051,43.325l-1.635,1.636c-0.146,0.146-0.338,0.22-0.53,0.22
		s-0.384-0.073-0.53-0.22c-0.293-0.293-0.293-0.768,0-1.061l1.635-1.636c0.292-0.293,0.768-0.293,1.061,0
		S30.344,43.032,30.051,43.325z M30.051,38.419c-0.146,0.146-0.338,0.22-0.53,0.22s-0.384-0.073-0.53-0.22l-1.635-1.635
		c-0.293-0.293-0.293-0.768,0-1.061s0.768-0.293,1.061,0l1.635,1.635C30.344,37.651,30.344,38.126,30.051,38.419z M32.725,46.124
		c0,0.414-0.336,0.75-0.75,0.75s-0.75-0.336-0.75-0.75v-2.313c0-0.414,0.336-0.75,0.75-0.75s0.75,0.336,0.75,0.75V46.124z
		 M32.725,36.873c0,0.414-0.336,0.75-0.75,0.75s-0.75-0.336-0.75-0.75V34.56c0-0.414,0.336-0.75,0.75-0.75s0.75,0.336,0.75,0.75
		V36.873z M36.593,44.96c-0.146,0.146-0.338,0.22-0.53,0.22s-0.384-0.073-0.53-0.22l-1.635-1.635c-0.293-0.293-0.293-0.768,0-1.061
		s0.768-0.293,1.061,0l1.635,1.635C36.886,44.192,36.886,44.667,36.593,44.96z M37.757,41.092h-2.313c-0.414,0-0.75-0.336-0.75-0.75
		s0.336-0.75,0.75-0.75h2.313c0.414,0,0.75,0.336,0.75,0.75S38.171,41.092,37.757,41.092z"/>
	<polygon fill="none" points="6.729,26.871 4.791,19.119 3.813,19.119 3.813,26.871 	"/>
	<path fill="#AEAEAE" d="M30.61,0.581c-8.006,0.39-13.589,0.838-13.731,0.85C16.682,1.447,16.5,1.54,16.371,1.69L2.493,17.881
		c-0.033,0.039-0.052,0.086-0.077,0.13c0.128-0.23,0.365-0.392,0.646-0.392h1.63L17.308,2.901c1.166-0.09,5.55-0.419,11.609-0.734
		c0.59-0.681,1.035-1.164,1.216-1.358C30.264,0.669,30.435,0.598,30.61,0.581z"/>
	<path fill="#AEAEAE" d="M140.125,20.232c-0.107-0.143-0.262-0.243-0.437-0.282c-0.185-0.041-18.479-4.09-32.232-4.633
		c-1.708-1.59-13.289-11.762-32.309-14.176c-1.777-0.226-3.67-0.409-5.635-0.56c0.283,0.042,0.531,0.241,0.615,0.534l0.298,1.044
		c1.57,0.133,3.091,0.287,4.533,0.47C94.97,5.17,106.5,16.473,106.614,16.587c0.134,0.133,0.314,0.212,0.503,0.219
		c12.743,0.46,29.645,4.044,31.976,4.549l0.668,0.89h1.499c0.414,0,0.75,0.336,0.75,0.75s-0.336,0.75-0.75,0.75h-0.375l2.345,3.126
		h1.5c0.414,0,0.75,0.336,0.75,0.75s-0.336,0.75-0.75,0.75h-0.375l1.359,1.813v8.352l-15.547,2.221
		c-0.409,0.059-0.694,0.438-0.636,0.849c0.053,0.374,0.374,0.644,0.741,0.644c0.035,0,0.071-0.002,0.107-0.008l16.19-2.313
		c0.369-0.053,0.644-0.369,0.644-0.742v-9.252c0-0.162-0.053-0.32-0.15-0.45L140.125,20.232z"/>
	<path fill="#AEAEAE" d="M31.23,1.832c-0.068,0.073-0.141,0.155-0.21,0.23c3.871-0.187,8.285-0.357,12.925-0.459V0.989
		c0-0.414,0.336-0.75,0.75-0.75s0.75,0.336,0.75,0.75v0.584c7.804-0.143,16.109-0.076,23.384,0.457l-0.144-0.504
		c-0.114-0.398,0.117-0.813,0.516-0.927c0.091-0.026,0.183-0.03,0.271-0.021C57.099-0.373,41.647,0.045,30.696,0.577
		c0.178,0.003,0.357,0.063,0.498,0.195C31.497,1.054,31.513,1.529,31.23,1.832z"/>
	<path fill="#AEAEAE" d="M2.313,27.621c0-0.414,0.336-0.75,0.75-0.75h0.75v-7.752h-0.75c-0.414,0-0.75-0.336-0.75-0.75
		c0-0.098,0.021-0.191,0.056-0.277c-0.035,0.088-0.057,0.181-0.057,0.277v9.074l-2.234,4.468c-0.084,0.167-0.102,0.36-0.05,0.541
		l2.313,8.097c0.058,0.202,0.198,0.371,0.386,0.465c0.253,0.126,2.865,1.234,16.526,1.234c0.414,0,0.75-0.336,0.75-0.75
		s-0.336-0.75-0.75-0.75c-11.042,0-14.642-0.726-15.577-0.986L1.551,32.32l1.975-3.949H3.063
		C2.649,28.371,2.313,28.035,2.313,27.621z"/>
	<path fill="#AEAEAE" d="M43.945,41.498c0,0.414,0.336,0.75,0.75,0.75h60.136c0.414,0,0.75-0.336,0.75-0.75s-0.336-0.75-0.75-0.75
		H44.695C44.281,40.748,43.945,41.084,43.945,41.498z"/>
	<path fill="#AEAEAE" d="M73.813,16.774c-0.069,0.02-0.139,0.029-0.206,0.029c-0.327,0-0.627-0.215-0.721-0.544l-0.271-0.952H45.445
		v0.746c0,0.414-0.336,0.75-0.75,0.75s-0.75-0.336-0.75-0.75v-0.746H26.192l0,0c0.414,0,0.75,0.336,0.75,0.75s-0.336,0.75-0.75,0.75
		l0,0h76.326c0.414,0,0.75-0.336,0.75-0.75s-0.336-0.75-0.75-0.75H74.175l0.154,0.541C74.442,16.246,74.212,16.66,73.813,16.774z"/>
	<path fill="#AEAEAE" d="M26.942,16.056c0-0.414-0.336-0.75-0.75-0.75c0,0,0,0,0,0c-1.286,0-2.07-0.302-2.329-0.898
		c-0.989-2.274,3.78-8.673,7.157-12.346c0.07-0.076,0.142-0.157,0.21-0.23c0.283-0.303,0.266-0.777-0.037-1.06
		c-0.141-0.131-0.319-0.191-0.498-0.195c-0.029,0-0.056,0.001-0.085,0.004c-0.175,0.017-0.347,0.088-0.477,0.228
		c-0.181,0.194-0.626,0.677-1.216,1.358c-2.552,2.945-7.834,9.61-6.43,12.839c0.52,1.194,1.766,1.8,3.705,1.8c0,0,0,0,0,0
		C26.606,16.806,26.942,16.47,26.942,16.056z"/>
	<path fill="#AEAEAE" d="M45.445,0.989c0-0.414-0.336-0.75-0.75-0.75s-0.75,0.336-0.75,0.75v0.614v13.703v0.746
		c0,0.414,0.336,0.75,0.75,0.75s0.75-0.336,0.75-0.75v-0.746V1.574V0.989z"/>
	<path fill="#AEAEAE" d="M69.513,0.581c-0.013-0.002-0.026-0.002-0.041-0.003C69.383,0.57,69.292,0.573,69.201,0.6
		c-0.398,0.114-0.629,0.528-0.516,0.927l0.144,0.504l3.786,13.275l0.271,0.952c0.094,0.33,0.394,0.544,0.721,0.544
		c0.067,0,0.137-0.009,0.206-0.029c0.398-0.114,0.629-0.528,0.516-0.927l-0.154-0.541l-3.75-13.147l-0.298-1.044
		C70.044,0.822,69.796,0.623,69.513,0.581z"/>
	<path fill="#AEAEAE" d="M134.612,28.313c-0.088-0.037-0.171-0.09-0.243-0.162C134.438,28.221,134.521,28.275,134.612,28.313z"/>
	<path fill="#AEAEAE" d="M145.479,27.621c0-0.414-0.336-0.75-0.75-0.75h-1.5h-8.02l0.22,0.22c0.293,0.293,0.293,0.768,0,1.061
		c-0.146,0.146-0.338,0.22-0.53,0.22h9.455h0.375C145.144,28.371,145.479,28.035,145.479,27.621z"/>
	<path fill="#AEAEAE" d="M130.276,22.245c-0.1,0-0.198,0.02-0.291,0.058c0.089-0.037,0.187-0.058,0.288-0.058H130.276z"/>
	<path fill="#AEAEAE" d="M129.791,22.433c-0.015,0.013-0.033,0.018-0.048,0.032c-0.01,0.01-0.013,0.022-0.021,0.033
		C129.743,22.473,129.767,22.453,129.791,22.433z"/>
	<path fill="#AEAEAE" d="M129.581,23.281c-0.035-0.084-0.054-0.177-0.055-0.273C129.527,23.101,129.545,23.194,129.581,23.281z"/>
	<path fill="#AEAEAE" d="M129.523,22.995c0-0.102,0.021-0.199,0.058-0.287C129.543,22.8,129.523,22.897,129.523,22.995z"/>
	<path fill="#AEAEAE" d="M135.43,27.091l-0.22-0.22l-3.126-3.126h-1.811c-0.206,0-0.394-0.083-0.528-0.219l4.624,4.625
		c0.072,0.072,0.155,0.125,0.243,0.162c0.092,0.038,0.189,0.058,0.287,0.058c0.192,0,0.384-0.073,0.53-0.22
		C135.723,27.858,135.723,27.384,135.43,27.091z"/>
	<path fill="#AEAEAE" d="M132.084,23.745h8.801h0.375c0.414,0,0.75-0.336,0.75-0.75s-0.336-0.75-0.75-0.75h-1.499h-9.484h-0.003
		c-0.102,0-0.199,0.021-0.288,0.058c-0.072,0.03-0.135,0.079-0.194,0.129c-0.024,0.021-0.048,0.04-0.069,0.064
		c-0.057,0.063-0.107,0.131-0.141,0.211c-0.036,0.088-0.058,0.185-0.058,0.287l0,0c0,0.004,0.003,0.008,0.003,0.013
		c0.001,0.096,0.02,0.188,0.055,0.273c0.038,0.092,0.094,0.176,0.164,0.245c0.135,0.135,0.322,0.219,0.528,0.219H132.084z"/>
	<path fill="#AEAEAE" d="M5.829,17.787c0.038,0.029,0.075,0.06,0.106,0.096C5.904,17.846,5.868,17.817,5.829,17.787z"/>
	<path fill="#AEAEAE" d="M5.577,17.66c0.047,0.014,0.094,0.028,0.138,0.05C5.671,17.687,5.625,17.673,5.577,17.66z"/>
	<path fill="#AEAEAE" d="M6.014,17.999c0.025,0.043,0.048,0.087,0.065,0.136C6.062,18.085,6.04,18.042,6.014,17.999z"/>
	<path fill="#AEAEAE" d="M2.417,18.011c-0.015,0.027-0.036,0.051-0.047,0.081c-0.035,0.086-0.056,0.179-0.056,0.277
		c0,0.414,0.336,0.75,0.75,0.75h0.75h0.978l-0.142-0.568c-0.101-0.402,0.144-0.809,0.545-0.91c0.082-0.02,0.163-0.017,0.243-0.01
		c-0.021-0.002-0.039-0.012-0.061-0.012H4.693h-1.63C2.781,17.619,2.545,17.781,2.417,18.011z"/>
	<path fill="#AEAEAE" d="M8.35,27.957C8.328,28,8.3,28.038,8.27,28.076C8.3,28.037,8.328,28,8.35,27.957z"/>
	<path fill="#AEAEAE" d="M8.176,28.181c-0.035,0.03-0.076,0.054-0.116,0.078C8.102,28.234,8.141,28.211,8.176,28.181z"/>
	<path fill="#AEAEAE" d="M8.428,27.678c-0.004,0.052-0.016,0.102-0.03,0.15C8.412,27.778,8.423,27.73,8.428,27.678z"/>
	<path fill="#AEAEAE" d="M7.871,28.349c0.02-0.005,0.034-0.019,0.052-0.024c-0.075,0.024-0.151,0.047-0.234,0.047
		C7.75,28.371,7.811,28.364,7.871,28.349z"/>
	<path fill="#AEAEAE" d="M4.648,18.551l0.142,0.568l1.938,7.752h0.96c0.382,0,0.685,0.29,0.732,0.66
		c-0.004-0.031,0.003-0.061-0.004-0.092l-2.313-9.252c-0.005-0.02-0.019-0.034-0.025-0.052c-0.017-0.049-0.04-0.093-0.065-0.136
		c-0.024-0.042-0.047-0.081-0.078-0.116c-0.032-0.037-0.069-0.067-0.106-0.096c-0.037-0.029-0.073-0.056-0.114-0.077
		c-0.044-0.022-0.09-0.037-0.138-0.05c-0.047-0.013-0.092-0.024-0.141-0.028c-0.08-0.007-0.161-0.01-0.243,0.01
		C4.792,17.742,4.548,18.149,4.648,18.551z"/>
	<path fill="#AEAEAE" d="M7.689,26.871h-0.96H3.813h-0.75c-0.414,0-0.75,0.336-0.75,0.75s0.336,0.75,0.75,0.75h0.462h4.164
		c0,0,0,0,0,0c0.083,0,0.159-0.022,0.234-0.047c0.049-0.017,0.093-0.04,0.137-0.065c0.04-0.024,0.081-0.048,0.116-0.078
		c0.036-0.031,0.064-0.067,0.094-0.104C8.3,28.038,8.328,28,8.35,27.957c0.021-0.041,0.034-0.084,0.047-0.129
		c0.014-0.049,0.026-0.099,0.03-0.15c0.001-0.02,0.011-0.036,0.011-0.057c0-0.032-0.014-0.06-0.018-0.09
		C8.374,27.161,8.071,26.871,7.689,26.871z"/>
	<path fill="#AEAEAE" d="M43.133,40.342c0-6.152-5.005-11.158-11.158-11.158s-11.158,5.006-11.158,11.158S25.822,51.5,31.975,51.5
		S43.133,46.494,43.133,40.342z M31.975,50c-5.326,0-9.658-4.333-9.658-9.658s4.333-9.658,9.658-9.658s9.658,4.333,9.658,9.658
		S37.3,50,31.975,50z"/>
	<path fill="#AEAEAE" d="M31.975,33.81c-0.414,0-0.75,0.336-0.75,0.75v2.313c0,0.414,0.336,0.75,0.75,0.75s0.75-0.336,0.75-0.75
		V34.56C32.725,34.146,32.389,33.81,31.975,33.81z"/>
	<path fill="#AEAEAE" d="M31.975,43.062c-0.414,0-0.75,0.336-0.75,0.75v2.313c0,0.414,0.336,0.75,0.75,0.75s0.75-0.336,0.75-0.75
		v-2.313C32.725,43.397,32.389,43.062,31.975,43.062z"/>
	<path fill="#AEAEAE" d="M28.417,35.724c-0.293-0.293-0.768-0.293-1.061,0s-0.293,0.768,0,1.061l1.635,1.635
		c0.146,0.146,0.338,0.22,0.53,0.22s0.384-0.073,0.53-0.22c0.293-0.293,0.293-0.768,0-1.061L28.417,35.724z"/>
	<path fill="#AEAEAE" d="M34.958,42.265c-0.293-0.293-0.768-0.293-1.061,0s-0.293,0.768,0,1.061l1.635,1.635
		c0.146,0.146,0.338,0.22,0.53,0.22s0.384-0.073,0.53-0.22c0.293-0.293,0.293-0.768,0-1.061L34.958,42.265z"/>
	<path fill="#AEAEAE" d="M29.255,40.342c0-0.414-0.336-0.75-0.75-0.75h-2.313c-0.414,0-0.75,0.336-0.75,0.75s0.336,0.75,0.75,0.75
		h2.313C28.919,41.092,29.255,40.756,29.255,40.342z"/>
	<path fill="#AEAEAE" d="M37.757,39.592h-2.313c-0.414,0-0.75,0.336-0.75,0.75s0.336,0.75,0.75,0.75h2.313
		c0.414,0,0.75-0.336,0.75-0.75S38.171,39.592,37.757,39.592z"/>
	<path fill="#AEAEAE" d="M28.991,42.265L27.356,43.9c-0.293,0.293-0.293,0.768,0,1.061c0.146,0.146,0.338,0.22,0.53,0.22
		s0.384-0.073,0.53-0.22l1.635-1.636c0.293-0.293,0.293-0.768,0-1.061S29.283,41.972,28.991,42.265z"/>
	<path fill="#AEAEAE" d="M34.427,38.639c0.192,0,0.384-0.073,0.53-0.22l1.635-1.635c0.293-0.293,0.293-0.768,0-1.061
		s-0.768-0.293-1.061,0l-1.635,1.635c-0.293,0.293-0.293,0.768,0,1.061C34.043,38.565,34.235,38.639,34.427,38.639z"/>
	<path fill="#AEAEAE" d="M128.711,40.342c0-6.152-5.006-11.158-11.158-11.158s-11.158,5.006-11.158,11.158S111.4,51.5,117.553,51.5
		S128.711,46.494,128.711,40.342z M117.553,50c-5.325,0-9.658-4.333-9.658-9.658s4.333-9.658,9.658-9.658s9.658,4.333,9.658,9.658
		S122.878,50,117.553,50z"/>
	<path fill="#AEAEAE" d="M117.553,33.81c-0.414,0-0.75,0.336-0.75,0.75v2.313c0,0.414,0.336,0.75,0.75,0.75s0.75-0.336,0.75-0.75
		V34.56C118.303,34.146,117.967,33.81,117.553,33.81z"/>
	<path fill="#AEAEAE" d="M117.553,43.062c-0.414,0-0.75,0.336-0.75,0.75v2.313c0,0.414,0.336,0.75,0.75,0.75s0.75-0.336,0.75-0.75
		v-2.313C118.303,43.397,117.967,43.062,117.553,43.062z"/>
	<path fill="#AEAEAE" d="M113.994,35.724c-0.294-0.294-0.769-0.292-1.061,0c-0.293,0.293-0.293,0.768,0,1.061l1.636,1.635
		c0.146,0.146,0.339,0.22,0.53,0.22c0.192,0,0.384-0.073,0.53-0.22c0.293-0.293,0.293-0.768,0-1.061L113.994,35.724z"/>
	<path fill="#AEAEAE" d="M120.536,42.265c-0.293-0.293-0.768-0.293-1.061,0s-0.293,0.768,0,1.061l1.635,1.635
		c0.146,0.146,0.338,0.22,0.53,0.22s0.384-0.073,0.53-0.22c0.293-0.293,0.293-0.768,0-1.061L120.536,42.265z"/>
	<path fill="#AEAEAE" d="M114.833,40.342c0-0.414-0.336-0.75-0.75-0.75h-2.313c-0.414,0-0.75,0.336-0.75,0.75s0.336,0.75,0.75,0.75
		h2.313C114.497,41.092,114.833,40.756,114.833,40.342z"/>
	<path fill="#AEAEAE" d="M123.335,39.592h-2.313c-0.414,0-0.75,0.336-0.75,0.75s0.336,0.75,0.75,0.75h2.313
		c0.414,0,0.75-0.336,0.75-0.75S123.749,39.592,123.335,39.592z"/>
	<path fill="#AEAEAE" d="M114.569,42.265l-1.636,1.636c-0.293,0.293-0.293,0.768,0,1.061c0.146,0.146,0.338,0.22,0.53,0.22
		s0.384-0.073,0.53-0.22l1.636-1.636c0.293-0.293,0.293-0.768,0-1.061S114.862,41.972,114.569,42.265z"/>
	<path fill="#AEAEAE" d="M120.006,38.639c0.192,0,0.384-0.073,0.53-0.22l1.635-1.635c0.293-0.293,0.293-0.768,0-1.061
		s-0.768-0.293-1.061,0l-1.635,1.635c-0.293,0.293-0.293,0.768,0,1.061C119.622,38.565,119.813,38.639,120.006,38.639z"/>
	<path fill="#AEAEAE" d="M51.634,23.745c0.414,0,0.75-0.336,0.75-0.75s-0.336-0.75-0.75-0.75h-4.626c-0.414,0-0.75,0.336-0.75,0.75
		s0.336,0.75,0.75,0.75H51.634z"/>
	<path fill="#AEAEAE" d="M82.964,23.745c0.414,0,0.75-0.336,0.75-0.75s-0.336-0.75-0.75-0.75h-4.626c-0.414,0-0.75,0.336-0.75,0.75
		s0.336,0.75,0.75,0.75H82.964z"/>
</g>
</svg>
