<?xml version="1.0" encoding="utf-8"?>
<!-- Generator: Adobe Illustrator 16.0.0, SVG Export Plug-In . SVG Version: 6.00 Build 0)  -->
<!DOCTYPE svg PUBLIC "-//W3C//DTD SVG 1.1 Tiny//EN" "http://www.w3.org/Graphics/SVG/1.1/DTD/svg11-tiny.dtd">
<svg version="1.1" baseProfile="tiny" id="Layer_1" xmlns="http://www.w3.org/2000/svg" xmlns:xlink="http://www.w3.org/1999/xlink"
	 x="0px" y="0px" width="146.885px" height="51.5px" viewBox="0 0 146.885 51.5" xml:space="preserve">
<g>
	<path fill="none" d="M77.229,3.863C62.534,0.077,39.922-0.892,14.781,15.385h87.57C98.729,12.807,89.728,7.084,77.229,3.863z
		 M36.115,11.519c0,0.414-0.336,0.75-0.75,0.75s-0.75-0.336-0.75-0.75V9.211c0-0.414,0.336-0.75,0.75-0.75s0.75,0.336,0.75,0.75
		V11.519z M66.115,11.519c0,0.414-0.336,0.75-0.75,0.75s-0.75-0.336-0.75-0.75V4.596c0-0.414,0.336-0.75,0.75-0.75
		s0.75,0.336,0.75,0.75V11.519z"/>
	<path fill="none" d="M27.288,30.73c-5.312,0-9.634,4.322-9.634,9.635S21.976,50,27.288,50c5.313,0,9.635-4.322,9.635-9.635
		S32.601,30.73,27.288,30.73z M29.206,37.388l1.632-1.632c0.293-0.293,0.768-0.293,1.061,0s0.293,0.768,0,1.061l-1.632,1.632
		c-0.146,0.146-0.338,0.22-0.53,0.22s-0.384-0.073-0.53-0.22C28.913,38.155,28.913,37.681,29.206,37.388z M20.769,40.365
		c0-0.414,0.336-0.75,0.75-0.75h2.308c0.414,0,0.75,0.336,0.75,0.75s-0.336,0.75-0.75,0.75h-2.308
		C21.105,41.115,20.769,40.779,20.769,40.365z M25.372,43.343l-1.632,1.632c-0.146,0.146-0.338,0.22-0.53,0.22
		s-0.384-0.073-0.53-0.22c-0.293-0.293-0.293-0.768,0-1.061l1.632-1.632c0.293-0.293,0.768-0.293,1.061,0
		S25.665,43.05,25.372,43.343z M25.372,38.448c-0.146,0.146-0.338,0.22-0.53,0.22s-0.384-0.073-0.53-0.22l-1.632-1.632
		c-0.293-0.293-0.293-0.768,0-1.061s0.768-0.293,1.061,0l1.632,1.632C25.665,37.681,25.665,38.155,25.372,38.448z M28.039,46.135
		c0,0.414-0.336,0.75-0.75,0.75s-0.75-0.336-0.75-0.75v-2.308c0-0.414,0.336-0.75,0.75-0.75s0.75,0.336,0.75,0.75V46.135z
		 M28.039,36.904c0,0.414-0.336,0.75-0.75,0.75s-0.75-0.336-0.75-0.75v-2.309c0-0.414,0.336-0.75,0.75-0.75s0.75,0.336,0.75,0.75
		V36.904z M31.898,44.975c-0.146,0.146-0.338,0.22-0.53,0.22s-0.384-0.073-0.53-0.22l-1.632-1.632c-0.293-0.293-0.293-0.768,0-1.061
		s0.768-0.293,1.061,0l1.632,1.632C32.191,44.207,32.191,44.682,31.898,44.975z M33.058,41.115H30.75c-0.414,0-0.75-0.336-0.75-0.75
		s0.336-0.75,0.75-0.75h2.308c0.414,0,0.75,0.336,0.75,0.75S33.472,41.115,33.058,41.115z"/>
	<path fill="none" d="M117.288,30.73c-5.313,0-9.634,4.322-9.634,9.635S111.976,50,117.288,50s9.635-4.322,9.635-9.635
		S122.601,30.73,117.288,30.73z M119.205,37.388l1.633-1.632c0.293-0.294,0.768-0.292,1.061,0c0.293,0.293,0.293,0.768,0,1.061
		l-1.633,1.632c-0.146,0.146-0.339,0.22-0.53,0.22c-0.192,0-0.384-0.073-0.53-0.22C118.912,38.155,118.912,37.681,119.205,37.388z
		 M110.77,40.365c0-0.414,0.336-0.75,0.75-0.75h2.308c0.414,0,0.75,0.336,0.75,0.75s-0.336,0.75-0.75,0.75h-2.308
		C111.105,41.115,110.77,40.779,110.77,40.365z M115.372,43.343l-1.633,1.632c-0.146,0.146-0.339,0.22-0.53,0.22
		c-0.192,0-0.384-0.073-0.53-0.22c-0.293-0.293-0.293-0.768,0-1.061l1.633-1.632c0.293-0.294,0.768-0.292,1.061,0
		C115.665,42.575,115.665,43.05,115.372,43.343z M115.372,38.448c-0.146,0.146-0.338,0.22-0.53,0.22c-0.191,0-0.384-0.073-0.53-0.22
		l-1.633-1.632c-0.293-0.293-0.293-0.768,0-1.061c0.292-0.292,0.767-0.294,1.061,0l1.633,1.632
		C115.665,37.681,115.665,38.155,115.372,38.448z M118.038,46.135c0,0.414-0.336,0.75-0.75,0.75s-0.75-0.336-0.75-0.75v-2.308
		c0-0.414,0.336-0.75,0.75-0.75s0.75,0.336,0.75,0.75V46.135z M118.038,36.904c0,0.414-0.336,0.75-0.75,0.75s-0.75-0.336-0.75-0.75
		v-2.309c0-0.414,0.336-0.75,0.75-0.75s0.75,0.336,0.75,0.75V36.904z M121.898,44.975c-0.146,0.146-0.338,0.22-0.53,0.22
		c-0.191,0-0.384-0.073-0.53-0.22l-1.633-1.632c-0.293-0.293-0.293-0.768,0-1.061c0.292-0.292,0.767-0.294,1.061,0l1.633,1.632
		C122.191,44.207,122.191,44.682,121.898,44.975z M123.058,41.115h-2.308c-0.414,0-0.75-0.336-0.75-0.75s0.336-0.75,0.75-0.75h2.308
		c0.414,0,0.75,0.336,0.75,0.75S123.472,41.115,123.058,41.115z"/>
	<path fill="#E6E9ED" d="M134.597,22.072v0.235c0.414,0,0.75,0.336,0.75,0.75v1.767l6.41,2.137c0.393,0.132,0.605,0.556,0.475,0.948
		l0.846,0.282v-2.564C142.248,25.117,139.663,23.679,134.597,22.072z"/>
	<path fill="#AEAEAE" d="M14.596,43.077C10.323,43.076,1.5,42.13,1.5,39.212V30.73h3.865c0.414,0,0.75-0.336,0.75-0.75
		s-0.336-0.75-0.75-0.75H0.75C0.336,29.23,0,29.566,0,29.98v9.231c0,5.215,13.102,5.365,14.596,5.365c0.414,0,0.75-0.336,0.75-0.75
		S15.01,43.077,14.596,43.077z"/>
	<path fill="#AEAEAE" d="M144.411,24.771c0.028,0.037,0.057,0.073,0.077,0.115C144.468,24.844,144.44,24.808,144.411,24.771z"/>
	<path fill="#AEAEAE" d="M144.536,25.017c0.014,0.048,0.025,0.096,0.029,0.147C144.562,25.113,144.55,25.066,144.536,25.017z"/>
	<path fill="#AEAEAE" d="M143.077,25.221c0-0.414,0.336-0.75,0.75-0.75c0.186,0,0.351,0.075,0.481,0.187
		c-0.015-0.012-0.021-0.029-0.037-0.041c-0.384-0.281-9.698-6.898-39.387-9.212c-1.504-1.191-11.742-8.975-27.216-12.977
		C62.291-1.549,38.439-2.519,12.058,15.384h-9c-0.311,0-0.577,0.189-0.691,0.458c0.114-0.269,0.38-0.458,0.69-0.458
		c0.414,0,0.75,0.336,0.75,0.75v0.749h8.478c-0.413-0.001-0.748-0.336-0.748-0.75c0-0.414,0.336-0.75,0.75-0.75h2.493
		C39.922-0.892,62.534,0.077,77.229,3.863c12.498,3.221,21.499,8.943,25.121,11.521h1.254c0.414,0,0.75,0.336,0.75,0.75
		c0,0.225-0.104,0.42-0.261,0.558c0.009,0.007,0.021,0.017,0.022,0.018c0.119,0.1,0.267,0.16,0.422,0.171
		c14.409,1.108,24.005,3.27,30.059,5.19c5.066,1.607,7.651,3.044,8.48,3.556V25.221z"/>
	<path fill="#AEAEAE" d="M143.827,37.653c0.414,0,0.75-0.336,0.75-0.75V25.221c0-0.02-0.01-0.037-0.012-0.057
		c-0.004-0.051-0.016-0.099-0.029-0.147c-0.014-0.046-0.026-0.09-0.048-0.132c-0.021-0.042-0.049-0.078-0.077-0.115
		c-0.031-0.041-0.063-0.079-0.103-0.113c-0.131-0.112-0.296-0.187-0.481-0.187c-0.414,0-0.75,0.336-0.75,0.75v0.407v2.564v8.711
		C143.077,37.317,143.413,37.653,143.827,37.653z"/>
	<path fill="#AEAEAE" d="M38.423,40.365c0-6.14-4.995-11.135-11.135-11.135c-6.139,0-11.134,4.995-11.134,11.135
		S21.149,51.5,27.288,51.5C33.428,51.5,38.423,46.505,38.423,40.365z M27.288,50c-5.312,0-9.634-4.322-9.634-9.635
		s4.322-9.635,9.634-9.635c5.313,0,9.635,4.322,9.635,9.635S32.601,50,27.288,50z"/>
	<path fill="#AEAEAE" d="M145.385,43.827v-0.75H129.98c-0.414,0-0.75,0.336-0.75,0.75s0.336,0.75,0.75,0.75h16.154
		C145.721,44.577,145.385,44.241,145.385,43.827z"/>
	<path fill="#AEAEAE" d="M104.596,43.077H39.981c-0.414,0-0.75,0.336-0.75,0.75s0.336,0.75,0.75,0.75h64.615
		c0.414,0,0.75-0.336,0.75-0.75S105.01,43.077,104.596,43.077z"/>
	<path fill="#AEAEAE" d="M3.058,15.385c-0.311,0-0.577,0.188-0.69,0.458c-0.038,0.09-0.06,0.188-0.06,0.292v11.538
		c0,0.414,0.336,0.75,0.75,0.75s0.75-0.336,0.75-0.75V16.884v-0.749C3.808,15.721,3.472,15.385,3.058,15.385z"/>
	<path fill="#AEAEAE" d="M10.731,18.442c0-0.404-0.321-0.721-0.724-0.735C9.6,17.708,9.26,18.015,9.231,18.418
		C9.193,18.966,8.335,20,5.366,20c-0.414,0-0.75,0.336-0.75,0.75s0.336,0.75,0.75,0.75C10.67,21.5,10.731,18.567,10.731,18.442z"/>
	<path fill="#AEAEAE" d="M27.289,33.846c-0.414,0-0.75,0.336-0.75,0.75v2.309c0,0.414,0.336,0.75,0.75,0.75s0.75-0.336,0.75-0.75
		v-2.309C28.039,34.182,27.703,33.846,27.289,33.846z"/>
	<path fill="#AEAEAE" d="M27.289,43.077c-0.414,0-0.75,0.336-0.75,0.75v2.308c0,0.414,0.336,0.75,0.75,0.75s0.75-0.336,0.75-0.75
		v-2.308C28.039,43.413,27.703,43.077,27.289,43.077z"/>
	<path fill="#AEAEAE" d="M23.74,35.756c-0.293-0.293-0.768-0.293-1.061,0s-0.293,0.768,0,1.061l1.632,1.632
		c0.146,0.146,0.338,0.22,0.53,0.22s0.384-0.073,0.53-0.22c0.293-0.293,0.293-0.768,0-1.061L23.74,35.756z"/>
	<path fill="#AEAEAE" d="M30.266,42.282c-0.293-0.293-0.768-0.293-1.061,0s-0.293,0.768,0,1.061l1.632,1.632
		c0.146,0.146,0.338,0.22,0.53,0.22s0.384-0.073,0.53-0.22c0.293-0.293,0.293-0.768,0-1.061L30.266,42.282z"/>
	<path fill="#AEAEAE" d="M24.577,40.365c0-0.414-0.336-0.75-0.75-0.75h-2.308c-0.414,0-0.75,0.336-0.75,0.75s0.336,0.75,0.75,0.75
		h2.308C24.241,41.115,24.577,40.779,24.577,40.365z"/>
	<path fill="#AEAEAE" d="M33.058,39.615H30.75c-0.414,0-0.75,0.336-0.75,0.75s0.336,0.75,0.75,0.75h2.308
		c0.414,0,0.75-0.336,0.75-0.75S33.472,39.615,33.058,39.615z"/>
	<path fill="#AEAEAE" d="M24.311,42.282l-1.632,1.632c-0.293,0.293-0.293,0.768,0,1.061c0.146,0.146,0.338,0.22,0.53,0.22
		s0.384-0.073,0.53-0.22l1.632-1.632c0.293-0.293,0.293-0.768,0-1.061S24.604,41.989,24.311,42.282z"/>
	<path fill="#AEAEAE" d="M29.736,38.668c0.192,0,0.384-0.073,0.53-0.22l1.632-1.632c0.293-0.293,0.293-0.768,0-1.061
		s-0.768-0.293-1.061,0l-1.632,1.632c-0.293,0.293-0.293,0.768,0,1.061C29.352,38.595,29.544,38.668,29.736,38.668z"/>
	<path fill="#AEAEAE" d="M128.423,40.365c0-6.14-4.995-11.135-11.135-11.135s-11.134,4.995-11.134,11.135S111.148,51.5,117.288,51.5
		S128.423,46.505,128.423,40.365z M117.288,50c-5.313,0-9.634-4.322-9.634-9.635s4.321-9.635,9.634-9.635s9.635,4.322,9.635,9.635
		S122.601,50,117.288,50z"/>
	<path fill="#AEAEAE" d="M117.288,33.846c-0.414,0-0.75,0.336-0.75,0.75v2.309c0,0.414,0.336,0.75,0.75,0.75s0.75-0.336,0.75-0.75
		v-2.309C118.038,34.182,117.702,33.846,117.288,33.846z"/>
	<path fill="#AEAEAE" d="M117.288,43.077c-0.414,0-0.75,0.336-0.75,0.75v2.308c0,0.414,0.336,0.75,0.75,0.75s0.75-0.336,0.75-0.75
		v-2.308C118.038,43.413,117.702,43.077,117.288,43.077z"/>
	<path fill="#AEAEAE" d="M113.739,35.756c-0.294-0.294-0.769-0.292-1.061,0c-0.293,0.293-0.293,0.768,0,1.061l1.633,1.632
		c0.146,0.146,0.339,0.22,0.53,0.22c0.192,0,0.384-0.073,0.53-0.22c0.293-0.293,0.293-0.768,0-1.061L113.739,35.756z"/>
	<path fill="#AEAEAE" d="M120.266,42.282c-0.294-0.294-0.769-0.292-1.061,0c-0.293,0.293-0.293,0.768,0,1.061l1.633,1.632
		c0.146,0.146,0.339,0.22,0.53,0.22c0.192,0,0.384-0.073,0.53-0.22c0.293-0.293,0.293-0.768,0-1.061L120.266,42.282z"/>
	<path fill="#AEAEAE" d="M114.577,40.365c0-0.414-0.336-0.75-0.75-0.75h-2.308c-0.414,0-0.75,0.336-0.75,0.75s0.336,0.75,0.75,0.75
		h2.308C114.241,41.115,114.577,40.779,114.577,40.365z"/>
	<path fill="#AEAEAE" d="M123.058,39.615h-2.308c-0.414,0-0.75,0.336-0.75,0.75s0.336,0.75,0.75,0.75h2.308
		c0.414,0,0.75-0.336,0.75-0.75S123.472,39.615,123.058,39.615z"/>
	<path fill="#AEAEAE" d="M114.312,42.282l-1.633,1.632c-0.293,0.293-0.293,0.768,0,1.061c0.146,0.146,0.338,0.22,0.53,0.22
		c0.191,0,0.384-0.073,0.53-0.22l1.633-1.632c0.293-0.293,0.293-0.768,0-1.061C115.079,41.99,114.604,41.988,114.312,42.282z"/>
	<path fill="#AEAEAE" d="M119.735,38.668c0.191,0,0.384-0.073,0.53-0.22l1.633-1.632c0.293-0.293,0.293-0.768,0-1.061
		c-0.293-0.292-0.768-0.294-1.061,0l-1.633,1.632c-0.293,0.293-0.293,0.768,0,1.061C119.352,38.595,119.543,38.668,119.735,38.668z"
		/>
	<path fill="#AEAEAE" d="M104.354,16.135c0-0.414-0.336-0.75-0.75-0.75h-1.254h-87.57h-2.493c-0.414,0-0.75,0.336-0.75,0.75
		c0,0.413,0.335,0.748,0.748,0.75c0.001,0,0.001,0,0.002,0h91.316c0.189,0,0.357-0.076,0.489-0.192
		C104.251,16.555,104.354,16.359,104.354,16.135z"/>
	<path fill="#AEAEAE" d="M65.365,3.846c-0.414,0-0.75,0.336-0.75,0.75v6.923c0,0.414,0.336,0.75,0.75,0.75s0.75-0.336,0.75-0.75
		V4.596C66.115,4.182,65.779,3.846,65.365,3.846z"/>
	<path fill="#AEAEAE" d="M35.365,8.461c-0.414,0-0.75,0.336-0.75,0.75v2.308c0,0.414,0.336,0.75,0.75,0.75s0.75-0.336,0.75-0.75
		V9.211C36.115,8.797,35.779,8.461,35.365,8.461z"/>
	<path fill="#AEAEAE" d="M43.038,23.058c0-0.414-0.336-0.75-0.75-0.75h-4.615c-0.414,0-0.75,0.336-0.75,0.75s0.336,0.75,0.75,0.75
		h4.615C42.702,23.808,43.038,23.472,43.038,23.058z"/>
	<path fill="#AEAEAE" d="M74.596,23.808c0.414,0,0.75-0.336,0.75-0.75s-0.336-0.75-0.75-0.75h-4.614c-0.414,0-0.75,0.336-0.75,0.75
		s0.336,0.75,0.75,0.75H74.596z"/>
	<path fill="#AEAEAE" d="M133.885,25.553c-0.014-0.053-0.03-0.104-0.032-0.16C133.854,25.449,133.87,25.5,133.885,25.553z"/>
	<path fill="#AEAEAE" d="M134,25.797c-0.028-0.039-0.061-0.075-0.081-0.12C133.939,25.722,133.972,25.757,134,25.797z"/>
	<path fill="#AEAEAE" d="M134.196,25.983c-0.038-0.024-0.078-0.044-0.11-0.074C134.118,25.939,134.158,25.958,134.196,25.983z"/>
	<path fill="#AEAEAE" d="M141.757,26.962l-6.41-2.137v0.541c0,0.414-0.336,0.75-0.75,0.75c-0.093,0-0.181-0.022-0.263-0.053
		c0.01,0.004,0.016,0.011,0.025,0.015l6.923,2.309c0.079,0.025,0.159,0.038,0.237,0.038c0.314,0,0.606-0.198,0.712-0.513
		c0,0,0,0,0-0.001C142.362,27.518,142.149,27.094,141.757,26.962z"/>
	<path fill="#AEAEAE" d="M135.347,25.365v-0.541v-1.767c0-0.414-0.336-0.75-0.75-0.75s-0.75,0.336-0.75,0.75v2.308
		c0,0.01,0.005,0.018,0.006,0.028c0.002,0.056,0.019,0.107,0.032,0.16c0.011,0.042,0.017,0.085,0.034,0.124
		c0.021,0.044,0.053,0.081,0.081,0.12c0.028,0.039,0.052,0.079,0.086,0.112c0.032,0.03,0.072,0.05,0.11,0.074
		c0.045,0.029,0.087,0.06,0.138,0.079c0.082,0.031,0.17,0.053,0.263,0.053C135.011,26.115,135.347,25.779,135.347,25.365z"/>
	<path fill="#AEAEAE" d="M146.135,38.462c-0.414,0-0.75,0.336-0.75,0.75v3.865v0.75c0,0.414,0.336,0.75,0.75,0.75
		s0.75-0.336,0.75-0.75v-4.615C146.885,38.798,146.549,38.462,146.135,38.462z"/>
</g>
</svg>
