<?xml version="1.0" encoding="utf-8"?>
<!-- Generator: Adobe Illustrator 16.0.0, SVG Export Plug-In . SVG Version: 6.00 Build 0)  -->
<!DOCTYPE svg PUBLIC "-//W3C//DTD SVG 1.1 Tiny//EN" "http://www.w3.org/Graphics/SVG/1.1/DTD/svg11-tiny.dtd">
<svg version="1.1" baseProfile="tiny" id="Layer_1" xmlns="http://www.w3.org/2000/svg" xmlns:xlink="http://www.w3.org/1999/xlink"
	 x="0px" y="0px" width="151.418px" height="51.5px" viewBox="0 0 151.418 51.5" xml:space="preserve">
<rect x="77.65" y="25.324" fill="none" width="3.259" height="3.259"/>
<rect x="68.131" y="25.324" fill="none" width="3.259" height="3.259"/>
<rect x="72.89" y="30.083" fill="none" width="3.259" height="3.259"/>
<path fill="none" d="M30.708,14.305h78.896c-4.688-2.462-14.811-7.566-23.424-10.436c-4.723-1.574-23.187-4.591-44.664,0.419
	C40.46,5.099,33.562,10.472,30.708,14.305z M67.208,1.901c0.401-0.096,0.807,0.153,0.903,0.557l2.38,10.044
	c0.095,0.403-0.154,0.807-0.557,0.903c-0.058,0.014-0.116,0.02-0.173,0.02c-0.34,0-0.647-0.232-0.729-0.577l-2.38-10.044
	C66.556,2.401,66.805,1.997,67.208,1.901z"/>
<polygon fill="none" points="13.214,20.589 4.905,20.566 4.091,23.824 9.959,23.824 "/>
<rect x="53.853" y="30.083" fill="none" width="3.259" height="3.259"/>
<rect x="82.409" y="30.083" fill="none" width="3.26" height="3.259"/>
<rect x="49.094" y="25.324" fill="none" width="3.259" height="3.259"/>
<path fill="none" d="M133.262,40.041c0-5.491-4.469-9.959-9.959-9.959c-5.491,0-9.958,4.468-9.958,9.959
	c0,5.492,4.467,9.96,9.958,9.96C128.793,50.001,133.262,45.533,133.262,40.041z M130.002,40.041c0,0.414-0.336,0.75-0.75,0.75
	h-2.379c-0.414,0-0.75-0.336-0.75-0.75s0.336-0.75,0.75-0.75h2.379C129.667,39.291,130.002,39.627,130.002,40.041z M125.297,36.986
	l1.683-1.682c0.293-0.294,0.769-0.294,1.062,0c0.293,0.293,0.293,0.768,0,1.061l-1.684,1.683c-0.146,0.146-0.338,0.22-0.529,0.22
	c-0.192,0-0.385-0.072-0.531-0.22C125.004,37.755,125.004,37.279,125.297,36.986z M125.297,42.035c0.293-0.293,0.768-0.293,1.061,0
	l1.684,1.683c0.293,0.293,0.293,0.769,0,1.062c-0.146,0.146-0.338,0.22-0.53,0.22s-0.384-0.073-0.53-0.22l-1.684-1.684
	C125.004,42.803,125.004,42.328,125.297,42.035z M122.553,34.093c0-0.413,0.336-0.75,0.75-0.75s0.75,0.337,0.75,0.75v2.38
	c0,0.414-0.336,0.75-0.75,0.75s-0.75-0.336-0.75-0.75V34.093z M116.604,40.041c0-0.414,0.336-0.75,0.75-0.75h2.381
	c0.414,0,0.75,0.336,0.75,0.75s-0.336,0.75-0.75,0.75h-2.381C116.939,40.791,116.604,40.455,116.604,40.041z M121.309,43.096
	l-1.682,1.684c-0.146,0.146-0.338,0.22-0.53,0.22c-0.191,0-0.384-0.073-0.53-0.22c-0.293-0.293-0.293-0.769,0-1.062l1.682-1.684
	c0.293-0.293,0.768-0.293,1.062,0C121.602,42.326,121.602,42.802,121.309,43.096z M121.309,38.049
	c-0.146,0.146-0.339,0.221-0.53,0.221c-0.192,0-0.384-0.074-0.53-0.221l-1.682-1.684c-0.293-0.293-0.293-0.77,0-1.061
	c0.293-0.295,0.768-0.293,1.061,0l1.683,1.684C121.602,37.281,121.602,37.757,121.309,38.049z M122.553,45.991v-2.38
	c0-0.414,0.336-0.75,0.75-0.75s0.75,0.336,0.75,0.75v2.38c0,0.413-0.336,0.75-0.75,0.75S122.553,46.404,122.553,45.991z"/>
<rect x="63.372" y="30.083" fill="none" width="3.259" height="3.259"/>
<rect x="58.612" y="25.324" fill="none" width="3.259" height="3.259"/>
<rect x="87.168" y="25.324" fill="none" width="3.258" height="3.259"/>
<path fill="none" d="M40.455,40.041c0-5.491-4.468-9.959-9.959-9.959c-5.491,0-9.958,4.468-9.958,9.959
	c0,5.492,4.467,9.96,9.958,9.96C35.987,50.001,40.455,45.533,40.455,40.041z M37.195,40.041c0,0.414-0.336,0.75-0.75,0.75h-2.38
	c-0.414,0-0.75-0.336-0.75-0.75s0.336-0.75,0.75-0.75h2.38C36.859,39.291,37.195,39.627,37.195,40.041z M32.489,36.986l1.683-1.682
	c0.293-0.294,0.768-0.294,1.061,0c0.293,0.293,0.293,0.768,0,1.061l-1.683,1.683c-0.146,0.146-0.338,0.22-0.53,0.22
	s-0.384-0.072-0.53-0.22C32.196,37.755,32.196,37.279,32.489,36.986z M32.489,42.035c0.293-0.293,0.768-0.293,1.061,0l1.683,1.683
	c0.293,0.293,0.293,0.769,0,1.062c-0.146,0.146-0.338,0.22-0.53,0.22s-0.384-0.073-0.53-0.22l-1.683-1.684
	C32.196,42.803,32.196,42.328,32.489,42.035z M29.746,34.093c0-0.413,0.336-0.75,0.75-0.75s0.75,0.337,0.75,0.75v2.38
	c0,0.414-0.336,0.75-0.75,0.75s-0.75-0.336-0.75-0.75V34.093z M23.797,40.041c0-0.414,0.336-0.75,0.75-0.75h2.38
	c0.414,0,0.75,0.336,0.75,0.75s-0.336,0.75-0.75,0.75h-2.38C24.133,40.791,23.797,40.455,23.797,40.041z M28.502,43.096
	l-1.682,1.684c-0.146,0.146-0.339,0.22-0.531,0.22s-0.384-0.073-0.53-0.22c-0.293-0.293-0.293-0.769,0-1.062l1.682-1.684
	c0.293-0.293,0.768-0.293,1.061,0C28.795,42.326,28.795,42.802,28.502,43.096z M28.502,38.049c-0.146,0.146-0.338,0.221-0.53,0.221
	c-0.192,0-0.384-0.074-0.531-0.221l-1.682-1.684c-0.292-0.293-0.292-0.77,0-1.061c0.293-0.294,0.768-0.294,1.061,0l1.682,1.684
	C28.795,37.281,28.795,37.757,28.502,38.049z M29.746,45.991v-2.38c0-0.414,0.336-0.75,0.75-0.75s0.75,0.336,0.75,0.75v2.38
	c0,0.413-0.336,0.75-0.75,0.75S29.746,46.404,29.746,45.991z"/>
<rect x="91.928" y="30.083" fill="none" width="3.259" height="3.259"/>
<rect x="96.687" y="25.324" fill="none" width="3.26" height="3.259"/>
<path fill="#E6E9ED" d="M136.922,21.664l4.539,4.539h5.359c-0.895-1.59-2.044-2.803-3.527-3.298
	c-1.916-0.639-4.988-1.439-8.465-2.271l1.031,1.031l0.001-0.001C136.154,21.371,136.629,21.371,136.922,21.664z"/>
<path fill="#AEAEAE" d="M134.762,40.041c0-6.318-5.141-11.459-11.459-11.459s-11.458,5.141-11.458,11.459
	c0,6.313,5.129,11.448,11.438,11.459h0.038C129.631,51.489,134.762,46.354,134.762,40.041z M113.345,40.041
	c0-5.491,4.467-9.959,9.958-9.959c5.49,0,9.959,4.468,9.959,9.959c0,5.492-4.469,9.96-9.959,9.96
	C117.812,50.001,113.345,45.533,113.345,40.041z"/>
<path fill="#AEAEAE" d="M123.303,37.223c0.414,0,0.75-0.336,0.75-0.75v-2.38c0-0.413-0.336-0.75-0.75-0.75s-0.75,0.337-0.75,0.75
	v2.38C122.553,36.887,122.889,37.223,123.303,37.223z"/>
<path fill="#AEAEAE" d="M124.053,45.991v-2.38c0-0.414-0.336-0.75-0.75-0.75s-0.75,0.336-0.75,0.75v2.38
	c0,0.413,0.336,0.75,0.75,0.75S124.053,46.404,124.053,45.991z"/>
<path fill="#AEAEAE" d="M119.627,35.305c-0.293-0.291-0.769-0.294-1.062,0c-0.293,0.293-0.293,0.769,0,1.062l1.683,1.684
	c0.146,0.146,0.338,0.22,0.529,0.22s0.385-0.072,0.53-0.22c0.293-0.292,0.293-0.768,0-1.061L119.627,35.305z"/>
<path fill="#AEAEAE" d="M126.979,44.777c0.146,0.146,0.338,0.221,0.529,0.221c0.193,0,0.385-0.073,0.531-0.221
	c0.293-0.293,0.293-0.768,0-1.061l-1.684-1.683c-0.293-0.293-0.768-0.293-1.061,0s-0.293,0.768,0,1.062L126.979,44.777z"/>
<path fill="#AEAEAE" d="M120.484,40.041c0-0.414-0.336-0.75-0.75-0.75h-2.381c-0.414,0-0.75,0.336-0.75,0.75s0.336,0.75,0.75,0.75
	h2.381C120.148,40.791,120.484,40.455,120.484,40.041z"/>
<path fill="#AEAEAE" d="M126.124,40.041c0,0.414,0.336,0.75,0.75,0.75h2.379c0.414,0,0.75-0.336,0.75-0.75s-0.336-0.75-0.75-0.75
	h-2.379C126.459,39.291,126.124,39.627,126.124,40.041z"/>
<path fill="#AEAEAE" d="M120.249,42.034l-1.683,1.684c-0.293,0.293-0.293,0.769,0,1.062c0.146,0.146,0.339,0.22,0.53,0.22
	s0.384-0.073,0.529-0.22l1.683-1.684c0.293-0.294,0.293-0.77,0-1.062C121.015,41.741,120.54,41.741,120.249,42.034z"/>
<path fill="#AEAEAE" d="M125.827,38.268c0.192,0,0.385-0.072,0.53-0.22l1.683-1.683c0.293-0.293,0.293-0.768,0-1.061
	c-0.293-0.294-0.768-0.294-1.061,0l-1.684,1.682c-0.293,0.293-0.293,0.769,0,1.062C125.443,38.193,125.635,38.268,125.827,38.268z"
	/>
<path fill="#AEAEAE" d="M41.955,40.041c0-6.318-5.141-11.459-11.459-11.459s-11.458,5.141-11.458,11.459
	c0,6.313,5.13,11.448,11.439,11.459h0.038C36.824,51.489,41.955,46.354,41.955,40.041z M20.538,40.041
	c0-5.491,4.467-9.959,9.958-9.959c5.491,0,9.959,4.468,9.959,9.959c0,5.492-4.468,9.96-9.959,9.96
	C25.005,50.001,20.538,45.533,20.538,40.041z"/>
<path fill="#AEAEAE" d="M30.496,37.223c0.414,0,0.75-0.336,0.75-0.75v-2.38c0-0.413-0.336-0.75-0.75-0.75s-0.75,0.337-0.75,0.75
	v2.38C29.746,36.887,30.082,37.223,30.496,37.223z"/>
<path fill="#AEAEAE" d="M31.246,45.991v-2.38c0-0.414-0.336-0.75-0.75-0.75s-0.75,0.336-0.75,0.75v2.38
	c0,0.413,0.336,0.75,0.75,0.75S31.246,46.404,31.246,45.991z"/>
<path fill="#AEAEAE" d="M26.82,35.305c-0.293-0.293-0.768-0.293-1.061,0s-0.293,0.769,0,1.062l1.682,1.684
	c0.146,0.146,0.339,0.22,0.531,0.22c0.192,0,0.384-0.072,0.53-0.22c0.293-0.292,0.293-0.768,0-1.061L26.82,35.305z"/>
<path fill="#AEAEAE" d="M34.172,44.777c0.146,0.146,0.338,0.221,0.53,0.221c0.192,0,0.384-0.073,0.53-0.221
	c0.293-0.293,0.293-0.768,0-1.061l-1.683-1.683c-0.293-0.293-0.768-0.293-1.061,0s-0.293,0.768,0,1.062L34.172,44.777z"/>
<path fill="#AEAEAE" d="M27.677,40.041c0-0.414-0.336-0.75-0.75-0.75h-2.38c-0.414,0-0.75,0.336-0.75,0.75s0.336,0.75,0.75,0.75
	h2.38C27.341,40.791,27.677,40.455,27.677,40.041z"/>
<path fill="#AEAEAE" d="M33.315,40.041c0,0.414,0.336,0.75,0.75,0.75h2.38c0.414,0,0.75-0.336,0.75-0.75s-0.336-0.75-0.75-0.75
	h-2.38C33.651,39.291,33.315,39.627,33.315,40.041z"/>
<path fill="#AEAEAE" d="M27.441,42.034l-1.682,1.684c-0.292,0.293-0.292,0.769,0,1.062c0.146,0.146,0.338,0.22,0.53,0.22
	s0.384-0.073,0.531-0.22l1.682-1.684c0.292-0.294,0.292-0.77,0-1.062C28.209,41.741,27.734,41.741,27.441,42.034z"/>
<path fill="#AEAEAE" d="M33.02,38.268c0.192,0,0.384-0.072,0.53-0.22l1.683-1.683c0.293-0.293,0.293-0.768,0-1.061
	c-0.293-0.294-0.768-0.294-1.061,0l-1.683,1.682c-0.293,0.293-0.293,0.769,0,1.062C32.636,38.193,32.828,38.268,33.02,38.268z"/>
<path fill="#AEAEAE" d="M40.921,2.902c-8.476,1.995-17.4,5.217-26.137,10.238l-9.368,1.171c-0.307,0.039-0.559,0.262-0.634,0.562
	l-2.36,9.439l-2.344,4.685C0.027,29.102,0,29.216,0,29.331v0.106c0.004,3.008,0.229,12.371,2.794,13.653
	c2.467,1.234,13.377,1.271,14.613,1.271c0.414,0,0.75-0.336,0.75-0.75s-0.336-0.75-0.75-0.75c-4.711,0-12.313-0.297-13.942-1.111
	c-1.201-0.6-1.949-6.783-1.965-12.24l2.094-4.186H3.13c-0.414,0-0.75-0.336-0.75-0.75c0-0.414,0.336-0.75,0.75-0.75h0.961
	l0.814-3.258l-0.588-0.001c-0.415-0.001-0.749-0.338-0.748-0.752s0.337-0.748,0.75-0.748c0,0,0.001,0,0.002,0l0.958,0.003
	l0.833-3.332l9.008-1.126c0.099-0.012,0.195-0.044,0.282-0.095c7.527-4.342,15.191-7.323,22.577-9.329
	c1.518-1.246,2.64-2.102,2.771-2.201C40.803,2.944,40.863,2.926,40.921,2.902z"/>
<path fill="#AEAEAE" d="M151.418,42.175c-0.015-2.432-0.262-10.092-2.688-15.46c0.025,0.076,0.048,0.154,0.048,0.238
	c0,0.414-0.336,0.75-0.75,0.75h-0.478c1.342,3.203,1.924,7.311,2.177,10.398h0.813c0.414,0,0.75,0.336,0.75,0.75
	s-0.336,0.75-0.75,0.75h-0.711c0.063,1.097,0.082,1.971,0.088,2.479c-1.406,0.489-7.787,0.778-13.526,0.778
	c-0.414,0-0.75,0.336-0.75,0.75s0.336,0.75,0.75,0.75c14.485,0,15.009-1.084,15.026-1.854V42.175z"/>
<path fill="#AEAEAE" d="M146.821,26.203h1.208c0.278,0,0.513,0.158,0.642,0.385c-1.119-2.427-2.69-4.368-4.902-5.105
	c-7.096-2.366-28.924-6.744-30.913-7.14c-1.326-0.727-15.008-8.167-26.199-11.896C81.84,0.84,63.004-2.248,41.138,2.848
	c0.249-0.021,0.502,0.067,0.664,0.281c0.25,0.331,0.186,0.801-0.145,1.051c-0.006,0.005-0.058,0.044-0.141,0.108
	c21.478-5.01,39.941-1.993,44.664-0.419c8.613,2.87,18.736,7.974,23.424,10.436h2.184c0.414,0,0.75,0.336,0.75,0.75
	c0,0.269-0.148,0.494-0.361,0.626c0.031,0.018,0.051,0.028,0.056,0.031c0.067,0.038,0.142,0.064,0.218,0.079
	c0.172,0.035,12.814,2.556,22.381,4.844c3.476,0.831,6.547,1.632,8.463,2.271C144.777,23.4,145.926,24.613,146.821,26.203z"/>
<path fill="#AEAEAE" d="M42.834,43.611c0,0.414,0.336,0.75,0.75,0.75h66.631c0.414,0,0.75-0.336,0.75-0.75s-0.336-0.75-0.75-0.75
	H43.584C43.17,42.861,42.834,43.197,42.834,43.611z"/>
<path fill="#AEAEAE" d="M69.031,12.848c0.082,0.345,0.39,0.577,0.729,0.577c0.057,0,0.115-0.006,0.173-0.02
	c0.403-0.096,0.652-0.5,0.557-0.903L68.11,2.458c-0.096-0.404-0.501-0.653-0.903-0.557c-0.403,0.096-0.652,0.5-0.557,0.903
	L69.031,12.848z"/>
<path fill="#AEAEAE" d="M28.668,15.424c-0.023-0.039-0.046-0.078-0.061-0.12C28.623,15.347,28.645,15.385,28.668,15.424z"/>
<path fill="#AEAEAE" d="M28.595,14.864c0.012-0.045,0.022-0.092,0.043-0.136C28.618,14.771,28.608,14.817,28.595,14.864z"/>
<path fill="#AEAEAE" d="M29.302,15.804c-0.111,0-0.223-0.033-0.328-0.085C29.074,15.769,29.183,15.803,29.302,15.804z"/>
<path fill="#AEAEAE" d="M28.864,15.645c-0.04-0.031-0.081-0.061-0.113-0.098C28.784,15.585,28.824,15.614,28.864,15.645z"/>
<path fill="#AEAEAE" d="M28.557,15.055c0,0.032,0.014,0.059,0.018,0.09c-0.005-0.042-0.013-0.084-0.011-0.127
	C28.563,15.031,28.557,15.042,28.557,15.055z"/>
<path fill="#AEAEAE" d="M112.538,15.055c0-0.414-0.336-0.75-0.75-0.75h-2.184H30.708c-0.289,0.388-0.552,0.766-0.747,1.116
	c-0.137,0.246-0.392,0.384-0.655,0.384l0,0h82.481c0.146,0,0.272-0.052,0.387-0.124C112.389,15.548,112.538,15.323,112.538,15.055z"
	/>
<path fill="#AEAEAE" d="M29.961,15.42c0.195-0.35,0.458-0.728,0.747-1.116c2.854-3.833,9.752-9.206,10.809-10.017
	c0.083-0.063,0.134-0.103,0.141-0.108c0.33-0.25,0.395-0.72,0.145-1.051c-0.162-0.213-0.415-0.302-0.664-0.281
	c-0.075,0.006-0.146,0.024-0.217,0.054c-0.058,0.024-0.118,0.042-0.17,0.083c-0.131,0.099-1.253,0.955-2.771,2.201
	c-3.045,2.501-7.708,6.601-9.329,9.503c-0.007,0.013-0.006,0.027-0.013,0.04c-0.021,0.044-0.031,0.09-0.043,0.136
	c-0.014,0.052-0.029,0.101-0.031,0.153c-0.002,0.043,0.005,0.085,0.011,0.127c0.007,0.055,0.014,0.107,0.032,0.159
	c0.015,0.042,0.038,0.081,0.061,0.12c0.025,0.043,0.049,0.085,0.083,0.123c0.032,0.037,0.073,0.067,0.113,0.098
	c0.027,0.02,0.046,0.048,0.076,0.065c0.011,0.006,0.023,0.003,0.034,0.009c0.105,0.052,0.217,0.085,0.328,0.085
	c0.001,0,0.002,0.001,0.003,0.001l0,0C29.569,15.805,29.824,15.666,29.961,15.42z"/>
<path fill="#AEAEAE" d="M140.863,27.646c-0.088-0.037-0.171-0.09-0.243-0.162C140.689,27.553,140.771,27.607,140.863,27.646z"/>
<path fill="#AEAEAE" d="M148.779,26.953c0-0.084-0.022-0.162-0.048-0.238c-0.016-0.046-0.037-0.086-0.061-0.127
	c-0.131-0.227-0.363-0.385-0.643-0.385h-1.208h-5.36l0.221,0.22c0.293,0.293,0.293,0.769,0,1.062c-0.146,0.146-0.338,0.22-0.53,0.22
	h6.401h0.478C148.443,27.703,148.779,27.367,148.779,26.953z"/>
<path fill="#AEAEAE" d="M141.681,26.423l-0.22-0.22l-4.539-4.539c-0.293-0.293-0.769-0.293-1.062,0l-0.001,0.001
	c-0.292,0.293-0.292,0.767,0.001,1.059l4.759,4.758c0.072,0.072,0.155,0.125,0.243,0.162c0.093,0.039,0.188,0.059,0.287,0.059
	c0.192,0,0.384-0.073,0.53-0.221C141.974,27.189,141.974,26.716,141.681,26.423z"/>
<path fill="#AEAEAE" d="M15.766,19.908c0.002-0.021,0.013-0.04,0.013-0.062c0-0.035-0.015-0.064-0.02-0.097
	C15.766,19.803,15.771,19.854,15.766,19.908z"/>
<path fill="#AEAEAE" d="M15.722,19.562c-0.076-0.185-0.222-0.333-0.406-0.409c0.089,0.037,0.172,0.091,0.245,0.164
	C15.632,19.389,15.686,19.472,15.722,19.562z"/>
<path fill="#AEAEAE" d="M15.72,20.133c-0.037,0.088-0.09,0.171-0.162,0.243C15.627,20.307,15.682,20.224,15.72,20.133z"/>
<path fill="#AEAEAE" d="M4.319,19.064c-0.413,0-0.749,0.334-0.75,0.748s0.333,0.751,0.748,0.752l0.588,0.001l8.309,0.023
	l1.285-1.277c0.165-0.163,0.385-0.225,0.599-0.205c-0.023-0.002-0.044-0.014-0.068-0.014l-9.75-0.027l-0.958-0.003
	C4.321,19.064,4.32,19.064,4.319,19.064z"/>
<path fill="#AEAEAE" d="M10.269,25.324c0.098,0,0.195-0.02,0.287-0.058C10.467,25.302,10.371,25.324,10.269,25.324L10.269,25.324z"
	/>
<path fill="#AEAEAE" d="M14.499,19.313l-1.285,1.277l-3.255,3.234h0.309c0.414,0,0.75,0.336,0.75,0.75
	c0,0.246-0.125,0.453-0.308,0.59c0.028-0.021,0.062-0.032,0.087-0.058l4.759-4.729c0,0,0-0.001,0.001-0.001
	c0.072-0.072,0.125-0.155,0.162-0.243c0.03-0.072,0.04-0.148,0.046-0.225c0.005-0.054,0-0.105-0.007-0.159
	c-0.008-0.063-0.013-0.127-0.037-0.188c-0.036-0.089-0.09-0.173-0.162-0.246c-0.072-0.073-0.156-0.126-0.245-0.164
	c-0.069-0.029-0.144-0.037-0.217-0.044C14.884,19.088,14.664,19.149,14.499,19.313z"/>
<path fill="#AEAEAE" d="M11.019,24.574c0-0.414-0.336-0.75-0.75-0.75h-0.31H4.091H3.13c-0.414,0-0.75,0.336-0.75,0.75
	c0,0.414,0.336,0.75,0.75,0.75h0.464h6.675l0,0c0.102,0,0.199-0.021,0.287-0.058c0.058-0.024,0.105-0.065,0.155-0.102
	C10.893,25.027,11.019,24.819,11.019,24.574z"/>
<path fill="#AEAEAE" d="M151.292,38.852c0-0.414-0.336-0.75-0.75-0.75h-0.813h-1.438c-0.414,0-0.75,0.336-0.75,0.75
	s0.336,0.75,0.75,0.75h1.541h0.711C150.956,39.602,151.292,39.266,151.292,38.852z"/>
<path fill="#AEAEAE" d="M100.697,23.824h-4.76c-0.414,0-0.75,0.336-0.75,0.75v4.009h-3.261v-4.009c0-0.414-0.336-0.75-0.75-0.75
	h-4.758c-0.414,0-0.75,0.336-0.75,0.75v4.009h-3.26v-4.009c0-0.414-0.336-0.75-0.75-0.75H76.9c-0.414,0-0.75,0.336-0.75,0.75v4.009
	h-3.26v-4.009c0-0.414-0.336-0.75-0.75-0.75h-4.759c-0.414,0-0.75,0.336-0.75,0.75v4.009h-3.26v-4.009c0-0.414-0.336-0.75-0.75-0.75
	h-4.759c-0.414,0-0.75,0.336-0.75,0.75v4.009h-3.259v-4.009c0-0.414-0.336-0.75-0.75-0.75h-4.759c-0.414,0-0.75,0.336-0.75,0.75
	v4.759c0,0.414,0.336,0.75,0.75,0.75h4.009v4.009c0,0.414,0.336,0.75,0.75,0.75h4.759c0.414,0,0.75-0.336,0.75-0.75v-4.009h3.26
	v4.009c0,0.414,0.336,0.75,0.75,0.75h4.759c0.414,0,0.75-0.336,0.75-0.75v-4.009h3.259v4.009c0,0.414,0.336,0.75,0.75,0.75h4.759
	c0.414,0,0.75-0.336,0.75-0.75v-4.009h3.26v4.009c0,0.414,0.336,0.75,0.75,0.75h4.76c0.414,0,0.75-0.336,0.75-0.75v-4.009h3.26
	v4.009c0,0.414,0.336,0.75,0.75,0.75h4.759c0.414,0,0.75-0.336,0.75-0.75v-4.009h4.01c0.414,0,0.75-0.336,0.75-0.75v-4.759
	C101.447,24.16,101.111,23.824,100.697,23.824z M49.094,28.583v-3.259h3.259v3.259H49.094z M57.112,33.342h-3.259v-3.259h3.259
	V33.342z M61.871,28.583h-3.259v-3.259h3.259V28.583z M66.631,33.342h-3.259v-3.259h3.259V33.342z M68.131,28.583v-3.259h3.259
	v3.259H68.131z M76.149,33.342H72.89v-3.259h3.259V33.342z M77.65,28.583v-3.259h3.259v3.259H77.65z M85.668,33.342h-3.26v-3.259
	h3.26V33.342z M90.426,28.583h-3.258v-3.259h3.258V28.583z M95.187,33.342h-3.259v-3.259h3.259V33.342z M99.947,28.583h-3.26v-3.259
	h3.26V28.583z"/>
</svg>
