<?xml version="1.0" encoding="utf-8"?>
<!-- Generator: Adobe Illustrator 16.0.0, SVG Export Plug-In . SVG Version: 6.00 Build 0)  -->
<!DOCTYPE svg PUBLIC "-//W3C//DTD SVG 1.1 Tiny//EN" "http://www.w3.org/Graphics/SVG/1.1/DTD/svg11-tiny.dtd">
<svg version="1.1" baseProfile="tiny" id="Layer_1" xmlns="http://www.w3.org/2000/svg" xmlns:xlink="http://www.w3.org/1999/xlink"
	 x="0px" y="0px" width="132.682px" height="51.5px" viewBox="0 0 132.682 51.5" xml:space="preserve">
<g>
	<g>
		<polygon fill="#E6E9ED" points="126.844,19.398 127.979,23.943 120.026,23.943 120.026,18.875 		"/>
	</g>
	<g>
		<path fill="#AEAEAE" d="M131.932,42.409h-11.364c-0.414,0-0.75-0.336-0.75-0.75s0.336-0.75,0.75-0.75h10.614v-9.863h-3.795
			c-0.414,0-0.75-0.336-0.75-0.75s0.336-0.75,0.75-0.75h4.545c0.414,0,0.75,0.336,0.75,0.75v11.363
			C132.682,42.073,132.346,42.409,131.932,42.409z"/>
	</g>
	<g>
		<path fill="#AEAEAE" d="M3.022,33.318c-0.414,0-0.75-0.336-0.75-0.75V16.659c0-0.414,0.336-0.75,0.75-0.75h40.705V0.75
			c0-0.414,0.336-0.75,0.75-0.75h23.818C85.3,0,96.701,13.545,98.373,15.656l29.078,2.529c0.412,0.036,0.718,0.399,0.682,0.812
			s-0.388,0.719-0.813,0.682l-29.404-2.557c-0.214-0.019-0.41-0.129-0.538-0.302C97.265,16.667,85.872,1.5,68.295,1.5H45.227v15.159
			c0,0.414-0.336,0.75-0.75,0.75H3.772v15.159C3.772,32.982,3.436,33.318,3.022,33.318z"/>
	</g>
	<g>
		<path fill="#AEAEAE" d="M14.932,42.409H0.75c-0.414,0-0.75-0.336-0.75-0.75s0.336-0.75,0.75-0.75h14.182
			c0.414,0,0.75,0.336,0.75,0.75S15.346,42.409,14.932,42.409z"/>
	</g>
	<g>
		<path fill="#AEAEAE" d="M95.568,42.48H39.932c-0.414,0-0.75-0.336-0.75-0.75s0.336-0.75,0.75-0.75h55.636
			c0.414,0,0.75,0.336,0.75,0.75S95.982,42.48,95.568,42.48z"/>
	</g>
	<g>
		<path fill="#AEAEAE" d="M53.568,24.228h-4.546c-0.414,0-0.75-0.336-0.75-0.75s0.336-0.75,0.75-0.75h4.546
			c0.414,0,0.75,0.336,0.75,0.75S53.982,24.228,53.568,24.228z"/>
	</g>
	<g>
		<path fill="#AEAEAE" d="M97.982,17.409H44.477c-0.414,0-0.75-0.336-0.75-0.75s0.336-0.75,0.75-0.75h53.505
			c0.414,0,0.75,0.336,0.75,0.75S98.396,17.409,97.982,17.409z"/>
	</g>
	<g>
		<path fill="#AEAEAE" d="M64.478,15.137c-0.414,0-0.75-0.336-0.75-0.75V3.022c0-0.414,0.336-0.75,0.75-0.75s0.75,0.336,0.75,0.75
			v11.365C65.228,14.801,64.892,15.137,64.478,15.137z"/>
	</g>
	<g>
		<path fill="#AEAEAE" d="M5.437,33.318H0.75c-0.414,0-0.75-0.336-0.75-0.75s0.336-0.75,0.75-0.75h4.687
			c0.414,0,0.75,0.336,0.75,0.75S5.851,33.318,5.437,33.318z"/>
	</g>
	<g>
		<path fill="#AEAEAE" d="M0.75,42.409c-0.414,0-0.75-0.336-0.75-0.75v-9.091c0-0.414,0.336-0.75,0.75-0.75s0.75,0.336,0.75,0.75
			v9.091C1.5,42.073,1.164,42.409,0.75,42.409z"/>
	</g>
	<g>
		<path fill="#AEAEAE" d="M7.568,28.771c-0.414,0-0.75-0.336-0.75-0.75v-6.816c0-0.414,0.336-0.75,0.75-0.75s0.75,0.336,0.75,0.75
			v6.816C8.318,28.436,7.982,28.771,7.568,28.771z"/>
	</g>
	<g>
		<path fill="#AEAEAE" d="M7.568,28.771H3.022c-0.414,0-0.75-0.336-0.75-0.75s0.336-0.75,0.75-0.75h4.546
			c0.414,0,0.75,0.336,0.75,0.75S7.982,28.771,7.568,28.771z"/>
	</g>
	<g>
		<path fill="#AEAEAE" d="M7.568,21.955H3.022c-0.414,0-0.75-0.336-0.75-0.75s0.336-0.75,0.75-0.75h4.546
			c0.414,0,0.75,0.336,0.75,0.75S7.982,21.955,7.568,21.955z"/>
	</g>
	<g>
		<path fill="#AEAEAE" d="M108.068,51.5c-6.053,0-10.978-4.925-10.978-10.979c0-6.053,4.925-10.978,10.978-10.978
			c6.054,0,10.979,4.925,10.979,10.978C119.046,46.575,114.121,51.5,108.068,51.5z M108.068,31.044
			c-5.226,0-9.478,4.252-9.478,9.478c0,5.227,4.252,9.479,9.478,9.479c5.227,0,9.479-4.252,9.479-9.479
			C117.546,35.296,113.294,31.044,108.068,31.044z"/>
	</g>
	<g>
		
			<path fill="none" stroke="#AEAEAE" stroke-width="1.5" stroke-linecap="round" stroke-linejoin="round" stroke-miterlimit="10" d="
			M108.068,40.521L108.068,40.521z"/>
	</g>
	<g>
		<path fill="#AEAEAE" d="M108.068,37.864c-0.414,0-0.75-0.336-0.75-0.75v-2.273c0-0.414,0.336-0.75,0.75-0.75s0.75,0.336,0.75,0.75
			v2.273C108.818,37.528,108.482,37.864,108.068,37.864z"/>
	</g>
	<g>
		<path fill="#AEAEAE" d="M108.068,46.955c-0.414,0-0.75-0.336-0.75-0.75v-2.273c0-0.414,0.336-0.75,0.75-0.75s0.75,0.336,0.75,0.75
			v2.273C108.818,46.619,108.482,46.955,108.068,46.955z"/>
	</g>
	<g>
		<path fill="#AEAEAE" d="M105.658,38.861c-0.191,0-0.384-0.073-0.53-0.22l-1.607-1.605c-0.293-0.292-0.293-0.768,0-1.061
			c0.293-0.292,0.768-0.293,1.061,0l1.607,1.605c0.293,0.292,0.293,0.768,0,1.061C106.042,38.788,105.851,38.861,105.658,38.861z"/>
	</g>
	<g>
		<path fill="#AEAEAE" d="M112.085,45.29c-0.192,0-0.384-0.073-0.53-0.22l-1.606-1.606c-0.293-0.293-0.293-0.768,0-1.061
			s0.768-0.293,1.061,0l1.606,1.606c0.293,0.293,0.293,0.768,0,1.061C112.469,45.217,112.278,45.29,112.085,45.29z"/>
	</g>
	<g>
		<path fill="#AEAEAE" d="M104.659,41.271h-2.272c-0.414,0-0.75-0.336-0.75-0.75s0.336-0.75,0.75-0.75h2.272
			c0.414,0,0.75,0.336,0.75,0.75S105.073,41.271,104.659,41.271z"/>
	</g>
	<g>
		<path fill="#AEAEAE" d="M113.75,41.271h-2.272c-0.414,0-0.75-0.336-0.75-0.75s0.336-0.75,0.75-0.75h2.272
			c0.414,0,0.75,0.336,0.75,0.75S114.164,41.271,113.75,41.271z"/>
	</g>
	<g>
		<path fill="#AEAEAE" d="M104.051,45.29c-0.192,0-0.384-0.073-0.53-0.22c-0.293-0.293-0.293-0.768,0-1.061l1.607-1.606
			c0.294-0.294,0.769-0.292,1.061,0c0.293,0.293,0.293,0.768,0,1.061l-1.607,1.606C104.435,45.217,104.242,45.29,104.051,45.29z"/>
	</g>
	<g>
		<path fill="#AEAEAE" d="M110.479,38.861c-0.192,0-0.384-0.073-0.53-0.22c-0.293-0.293-0.293-0.768,0-1.061l1.606-1.605
			c0.293-0.293,0.768-0.292,1.061,0c0.293,0.293,0.293,0.768,0,1.061l-1.606,1.605C110.863,38.788,110.67,38.861,110.479,38.861z"/>
	</g>
	<g>
		<path fill="#AEAEAE" d="M27.432,51.5c-6.053,0-10.978-4.925-10.978-10.979c0-6.053,4.924-10.978,10.978-10.978
			c6.054,0,10.979,4.925,10.979,10.978C38.41,46.575,33.486,51.5,27.432,51.5z M27.432,31.044c-5.226,0-9.478,4.252-9.478,9.478
			c0,5.227,4.251,9.479,9.478,9.479c5.227,0,9.479-4.252,9.479-9.479C36.91,35.296,32.658,31.044,27.432,31.044z"/>
	</g>
	<g>
		
			<path fill="none" stroke="#AEAEAE" stroke-width="1.5" stroke-linecap="round" stroke-linejoin="round" stroke-miterlimit="10" d="
			M27.432,40.521L27.432,40.521z"/>
	</g>
	<g>
		<path fill="#AEAEAE" d="M27.432,37.864c-0.414,0-0.75-0.336-0.75-0.75v-2.273c0-0.414,0.336-0.75,0.75-0.75s0.75,0.336,0.75,0.75
			v2.273C28.182,37.528,27.846,37.864,27.432,37.864z"/>
	</g>
	<g>
		<path fill="#AEAEAE" d="M27.432,46.955c-0.414,0-0.75-0.336-0.75-0.75v-2.273c0-0.414,0.336-0.75,0.75-0.75s0.75,0.336,0.75,0.75
			v2.273C28.182,46.619,27.846,46.955,27.432,46.955z"/>
	</g>
	<g>
		<path fill="#AEAEAE" d="M25.021,38.861c-0.192,0-0.384-0.073-0.53-0.22l-1.605-1.605c-0.293-0.293-0.293-0.768,0-1.061
			s0.768-0.293,1.061,0l1.605,1.605c0.293,0.293,0.293,0.768,0,1.061C25.405,38.788,25.213,38.861,25.021,38.861z"/>
	</g>
	<g>
		<path fill="#AEAEAE" d="M31.449,45.29c-0.192,0-0.384-0.073-0.53-0.22l-1.607-1.606c-0.293-0.293-0.293-0.768,0-1.061
			c0.292-0.293,0.768-0.293,1.061,0l1.607,1.606c0.293,0.293,0.293,0.768,0,1.061C31.834,45.217,31.641,45.29,31.449,45.29z"/>
	</g>
	<g>
		<path fill="#AEAEAE" d="M24.023,41.271H21.75c-0.414,0-0.75-0.336-0.75-0.75s0.336-0.75,0.75-0.75h2.272
			c0.414,0,0.75,0.336,0.75,0.75S24.437,41.271,24.023,41.271z"/>
	</g>
	<g>
		<path fill="#AEAEAE" d="M33.114,41.271h-2.272c-0.414,0-0.75-0.336-0.75-0.75s0.336-0.75,0.75-0.75h2.272
			c0.414,0,0.75,0.336,0.75,0.75S33.528,41.271,33.114,41.271z"/>
	</g>
	<g>
		<path fill="#AEAEAE" d="M23.415,45.29c-0.192,0-0.384-0.073-0.53-0.22c-0.293-0.293-0.293-0.768,0-1.061l1.605-1.606
			c0.292-0.293,0.768-0.293,1.061,0s0.293,0.768,0,1.061l-1.605,1.606C23.8,45.217,23.607,45.29,23.415,45.29z"/>
	</g>
	<g>
		<path fill="#AEAEAE" d="M29.842,38.861c-0.192,0-0.384-0.073-0.531-0.22c-0.292-0.293-0.292-0.769,0.001-1.061l1.607-1.605
			c0.292-0.293,0.768-0.293,1.061,0c0.292,0.293,0.292,0.769-0.001,1.061l-1.607,1.605C30.226,38.788,30.034,38.861,29.842,38.861z"
			/>
	</g>
	<g>
		<path fill="#AEAEAE" d="M130.311,30.457c-0.331,0-0.633-0.22-0.724-0.554l-2.924-10.775c-0.108-0.399,0.128-0.812,0.527-0.92
			c0.403-0.111,0.812,0.128,0.92,0.527l2.924,10.775c0.108,0.399-0.128,0.812-0.527,0.92
			C130.442,30.448,130.375,30.457,130.311,30.457z"/>
	</g>
	<g>
		<path fill="#AEAEAE" d="M128.522,24.228h-7.955c-0.414,0-0.75-0.336-0.75-0.75s0.336-0.75,0.75-0.75h7.955
			c0.414,0,0.75,0.336,0.75,0.75S128.936,24.228,128.522,24.228z"/>
	</g>
	<g>
		<path fill="#AEAEAE" d="M120.568,24.228c-0.414,0-0.75-0.336-0.75-0.75v-5.139c0-0.414,0.336-0.75,0.75-0.75s0.75,0.336,0.75,0.75
			v5.139C121.318,23.892,120.982,24.228,120.568,24.228z"/>
	</g>
	<g>
		<path fill="#AEAEAE" d="M68.295,24.228H63.75c-0.414,0-0.75-0.336-0.75-0.75s0.336-0.75,0.75-0.75h4.545
			c0.414,0,0.75,0.336,0.75,0.75S68.709,24.228,68.295,24.228z"/>
	</g>
</g>
</svg>
